<mxfile host="app.diagrams.net" modified="2024-02-10T12:29:53.395Z" agent="Mozilla/5.0 (Windows NT 10.0; Win64; x64; rv:121.0) Gecko/20100101 Firefox/121.0" etag="p7WYThCTbKbunv5C813g" version="23.1.2" type="device">
  <diagram name="StrÃ¡nka-1" id="9TbMdHD4nd3kqVQhIjSj">
    <mxGraphModel dx="1235" dy="1825" grid="1" gridSize="10" guides="1" tooltips="1" connect="1" arrows="1" fold="1" page="1" pageScale="1" pageWidth="827" pageHeight="1169" math="0" shadow="0">
      <root>
        <mxCell id="0" />
        <mxCell id="1" parent="0" />
        <mxCell id="b-667IZJgg0mZAFJ5Uud-1" value="RAMBLOCK reg (1B)" style="rounded=0;whiteSpace=wrap;html=1;fillColor=#e1d5e7;strokeColor=#9673a6;" vertex="1" parent="1">
          <mxGeometry x="320" y="780" width="160" height="20" as="geometry" />
        </mxCell>
        <mxCell id="b-667IZJgg0mZAFJ5Uud-4" value="ROMBLOCK reg (1B)" style="rounded=0;whiteSpace=wrap;html=1;fillColor=#e1d5e7;strokeColor=#9673a6;" vertex="1" parent="1">
          <mxGeometry x="320" y="760" width="160" height="20" as="geometry" />
        </mxCell>
        <mxCell id="b-667IZJgg0mZAFJ5Uud-6" value="&lt;div&gt;&quot;Low memory&quot; &lt;br&gt;40702 B&lt;br&gt;&lt;/div&gt;" style="rounded=0;whiteSpace=wrap;html=1;fillColor=#dae8fc;strokeColor=#6c8ebf;" vertex="1" parent="1">
          <mxGeometry x="320" y="600" width="160" height="160" as="geometry" />
        </mxCell>
        <mxCell id="b-667IZJgg0mZAFJ5Uud-7" value="$00_0000" style="text;html=1;strokeColor=none;fillColor=none;align=center;verticalAlign=middle;whiteSpace=wrap;rounded=0;" vertex="1" parent="1">
          <mxGeometry x="250" y="790" width="60" as="geometry" />
        </mxCell>
        <mxCell id="b-667IZJgg0mZAFJ5Uud-8" value="$00_0001" style="text;html=1;strokeColor=none;fillColor=none;align=center;verticalAlign=middle;whiteSpace=wrap;rounded=0;" vertex="1" parent="1">
          <mxGeometry x="250" y="770" width="60" as="geometry" />
        </mxCell>
        <mxCell id="b-667IZJgg0mZAFJ5Uud-9" value="$00_0002" style="text;html=1;strokeColor=none;fillColor=none;align=center;verticalAlign=middle;whiteSpace=wrap;rounded=0;" vertex="1" parent="1">
          <mxGeometry x="250" y="750" width="60" as="geometry" />
        </mxCell>
        <mxCell id="b-667IZJgg0mZAFJ5Uud-10" value="$00_9EFF" style="text;html=1;strokeColor=none;fillColor=none;align=center;verticalAlign=middle;whiteSpace=wrap;rounded=0;" vertex="1" parent="1">
          <mxGeometry x="250" y="610" width="60" as="geometry" />
        </mxCell>
        <mxCell id="b-667IZJgg0mZAFJ5Uud-11" value="IOREGS 256B" style="rounded=0;whiteSpace=wrap;html=1;fillColor=#e1d5e7;strokeColor=#9673a6;" vertex="1" parent="1">
          <mxGeometry x="320" y="560" width="160" height="40" as="geometry" />
        </mxCell>
        <mxCell id="b-667IZJgg0mZAFJ5Uud-12" value="$00_9F00" style="text;html=1;strokeColor=none;fillColor=none;align=center;verticalAlign=middle;whiteSpace=wrap;rounded=0;" vertex="1" parent="1">
          <mxGeometry x="250" y="590" width="60" as="geometry" />
        </mxCell>
        <mxCell id="b-667IZJgg0mZAFJ5Uud-13" value="$00_9FFF" style="text;html=1;strokeColor=none;fillColor=none;align=center;verticalAlign=middle;whiteSpace=wrap;rounded=0;" vertex="1" parent="1">
          <mxGeometry x="250" y="570" width="60" as="geometry" />
        </mxCell>
        <mxCell id="b-667IZJgg0mZAFJ5Uud-14" value="" style="endArrow=none;dashed=1;html=1;dashPattern=1 3;strokeWidth=2;rounded=0;entryX=0;entryY=1;entryDx=0;entryDy=0;" edge="1" parent="1" target="b-667IZJgg0mZAFJ5Uud-11">
          <mxGeometry width="50" height="50" relative="1" as="geometry">
            <mxPoint x="240" y="600" as="sourcePoint" />
            <mxPoint x="390" y="620" as="targetPoint" />
          </mxGeometry>
        </mxCell>
        <mxCell id="b-667IZJgg0mZAFJ5Uud-15" value="" style="endArrow=none;dashed=1;html=1;dashPattern=1 3;strokeWidth=2;rounded=0;entryX=0;entryY=1;entryDx=0;entryDy=0;" edge="1" parent="1">
          <mxGeometry width="50" height="50" relative="1" as="geometry">
            <mxPoint x="240" y="759.52" as="sourcePoint" />
            <mxPoint x="320" y="759.52" as="targetPoint" />
          </mxGeometry>
        </mxCell>
        <mxCell id="b-667IZJgg0mZAFJ5Uud-16" value="RAM-Block Frame 8kB" style="rounded=0;whiteSpace=wrap;html=1;fillColor=#ffe6cc;strokeColor=#d79b00;" vertex="1" parent="1">
          <mxGeometry x="320" y="480" width="160" height="80" as="geometry" />
        </mxCell>
        <mxCell id="b-667IZJgg0mZAFJ5Uud-17" value="ROM-Block Frame 16kB" style="rounded=0;whiteSpace=wrap;html=1;fillColor=#f8cecc;strokeColor=#b85450;" vertex="1" parent="1">
          <mxGeometry x="320" y="320" width="160" height="160" as="geometry" />
        </mxCell>
        <mxCell id="b-667IZJgg0mZAFJ5Uud-18" value="" style="endArrow=none;dashed=1;html=1;dashPattern=1 3;strokeWidth=2;rounded=0;entryX=0;entryY=1;entryDx=0;entryDy=0;" edge="1" parent="1">
          <mxGeometry width="50" height="50" relative="1" as="geometry">
            <mxPoint x="240" y="560" as="sourcePoint" />
            <mxPoint x="320" y="560" as="targetPoint" />
          </mxGeometry>
        </mxCell>
        <mxCell id="b-667IZJgg0mZAFJ5Uud-19" value="$00_A000" style="text;html=1;strokeColor=none;fillColor=none;align=center;verticalAlign=middle;whiteSpace=wrap;rounded=0;" vertex="1" parent="1">
          <mxGeometry x="250" y="550" width="60" as="geometry" />
        </mxCell>
        <mxCell id="b-667IZJgg0mZAFJ5Uud-20" value="$00_BFFF" style="text;html=1;strokeColor=none;fillColor=none;align=center;verticalAlign=middle;whiteSpace=wrap;rounded=0;" vertex="1" parent="1">
          <mxGeometry x="250" y="490" width="60" as="geometry" />
        </mxCell>
        <mxCell id="b-667IZJgg0mZAFJ5Uud-21" value="" style="endArrow=none;dashed=1;html=1;dashPattern=1 3;strokeWidth=2;rounded=0;entryX=0;entryY=1;entryDx=0;entryDy=0;" edge="1" parent="1">
          <mxGeometry width="50" height="50" relative="1" as="geometry">
            <mxPoint x="240" y="480" as="sourcePoint" />
            <mxPoint x="320" y="480" as="targetPoint" />
          </mxGeometry>
        </mxCell>
        <mxCell id="b-667IZJgg0mZAFJ5Uud-23" value="$00_C000" style="text;html=1;strokeColor=none;fillColor=none;align=center;verticalAlign=middle;whiteSpace=wrap;rounded=0;" vertex="1" parent="1">
          <mxGeometry x="250" y="470" width="60" as="geometry" />
        </mxCell>
        <mxCell id="b-667IZJgg0mZAFJ5Uud-24" value="$00_FFFF" style="text;html=1;strokeColor=none;fillColor=none;align=center;verticalAlign=middle;whiteSpace=wrap;rounded=0;" vertex="1" parent="1">
          <mxGeometry x="250" y="330" width="60" as="geometry" />
        </mxCell>
        <mxCell id="b-667IZJgg0mZAFJ5Uud-25" value="" style="shape=curlyBracket;whiteSpace=wrap;html=1;rounded=1;labelPosition=left;verticalLabelPosition=middle;align=right;verticalAlign=middle;" vertex="1" parent="1">
          <mxGeometry x="220" y="320" width="20" height="480" as="geometry" />
        </mxCell>
        <mxCell id="b-667IZJgg0mZAFJ5Uud-26" value="&lt;div&gt;&lt;span&gt;64kB CPU Address Space of&lt;/span&gt;&lt;br&gt;&lt;/div&gt;&lt;div&gt;65C02&lt;/div&gt;&lt;div&gt;and BANK 00 of 65C816&lt;/div&gt;" style="text;html=1;strokeColor=none;fillColor=none;align=center;verticalAlign=middle;whiteSpace=wrap;rounded=0;fontStyle=1" vertex="1" parent="1">
          <mxGeometry x="100" y="520" width="110" height="90" as="geometry" />
        </mxCell>
        <mxCell id="b-667IZJgg0mZAFJ5Uud-27" value="BANK 01&lt;br&gt;64kB Memory" style="rounded=0;whiteSpace=wrap;html=1;fillColor=#f5f5f5;strokeColor=#666666;fontColor=#333333;" vertex="1" parent="1">
          <mxGeometry x="320" y="160" width="160" height="160" as="geometry" />
        </mxCell>
        <mxCell id="b-667IZJgg0mZAFJ5Uud-28" value="&lt;div&gt;BANK 02&lt;/div&gt;&lt;div&gt;64kB Memory&lt;/div&gt;" style="rounded=0;whiteSpace=wrap;html=1;fillColor=#f5f5f5;fontColor=#333333;strokeColor=#666666;" vertex="1" parent="1">
          <mxGeometry x="320" width="160" height="160" as="geometry" />
        </mxCell>
        <mxCell id="b-667IZJgg0mZAFJ5Uud-29" value="&lt;div&gt;BANK 03 to BANK 1F&lt;/div&gt;&lt;div&gt;each 64kB memory&lt;br&gt;&lt;/div&gt;" style="rounded=0;whiteSpace=wrap;html=1;dashed=1;fillColor=#f5f5f5;fontColor=#333333;strokeColor=#666666;" vertex="1" parent="1">
          <mxGeometry x="320" y="-160" width="160" height="160" as="geometry" />
        </mxCell>
        <mxCell id="b-667IZJgg0mZAFJ5Uud-30" value="" style="shape=curlyBracket;whiteSpace=wrap;html=1;rounded=1;labelPosition=left;verticalLabelPosition=middle;align=right;verticalAlign=middle;" vertex="1" parent="1">
          <mxGeometry x="220" y="-160" width="20" height="480" as="geometry" />
        </mxCell>
        <mxCell id="b-667IZJgg0mZAFJ5Uud-31" value="&lt;div&gt;&lt;span&gt;Additional Address Space of the 65C816&lt;br&gt;&lt;/span&gt;&lt;/div&gt;&lt;br&gt;(1984 kB)" style="text;html=1;strokeColor=none;fillColor=none;align=center;verticalAlign=middle;whiteSpace=wrap;rounded=0;fontStyle=1" vertex="1" parent="1">
          <mxGeometry x="110" y="35" width="110" height="90" as="geometry" />
        </mxCell>
        <mxCell id="b-667IZJgg0mZAFJ5Uud-34" value="" style="endArrow=none;dashed=1;html=1;dashPattern=1 3;strokeWidth=2;rounded=0;entryX=0;entryY=1;entryDx=0;entryDy=0;" edge="1" parent="1">
          <mxGeometry width="50" height="50" relative="1" as="geometry">
            <mxPoint x="240" y="320" as="sourcePoint" />
            <mxPoint x="320" y="320" as="targetPoint" />
          </mxGeometry>
        </mxCell>
        <mxCell id="b-667IZJgg0mZAFJ5Uud-35" value="$01_0000" style="text;html=1;strokeColor=none;fillColor=none;align=center;verticalAlign=middle;whiteSpace=wrap;rounded=0;" vertex="1" parent="1">
          <mxGeometry x="250" y="310" width="60" as="geometry" />
        </mxCell>
        <mxCell id="b-667IZJgg0mZAFJ5Uud-36" value="$01_FFFF" style="text;html=1;strokeColor=none;fillColor=none;align=center;verticalAlign=middle;whiteSpace=wrap;rounded=0;" vertex="1" parent="1">
          <mxGeometry x="250" y="170" width="60" as="geometry" />
        </mxCell>
        <mxCell id="b-667IZJgg0mZAFJ5Uud-37" value="$02_0000" style="text;html=1;strokeColor=none;fillColor=none;align=center;verticalAlign=middle;whiteSpace=wrap;rounded=0;" vertex="1" parent="1">
          <mxGeometry x="250" y="150" width="60" as="geometry" />
        </mxCell>
        <mxCell id="b-667IZJgg0mZAFJ5Uud-38" value="$02_FFFF" style="text;html=1;strokeColor=none;fillColor=none;align=center;verticalAlign=middle;whiteSpace=wrap;rounded=0;" vertex="1" parent="1">
          <mxGeometry x="250" y="10" width="60" as="geometry" />
        </mxCell>
        <mxCell id="b-667IZJgg0mZAFJ5Uud-39" value="$03_0000" style="text;html=1;strokeColor=none;fillColor=none;align=center;verticalAlign=middle;whiteSpace=wrap;rounded=0;" vertex="1" parent="1">
          <mxGeometry x="250" y="-10" width="60" as="geometry" />
        </mxCell>
        <mxCell id="b-667IZJgg0mZAFJ5Uud-40" value="$1F_FFFF" style="text;html=1;strokeColor=none;fillColor=none;align=center;verticalAlign=middle;whiteSpace=wrap;rounded=0;" vertex="1" parent="1">
          <mxGeometry x="250" y="-150" width="60" as="geometry" />
        </mxCell>
        <mxCell id="b-667IZJgg0mZAFJ5Uud-42" value="" style="endArrow=none;dashed=1;html=1;dashPattern=1 3;strokeWidth=2;rounded=0;entryX=0;entryY=1;entryDx=0;entryDy=0;" edge="1" parent="1">
          <mxGeometry width="50" height="50" relative="1" as="geometry">
            <mxPoint x="240" y="160" as="sourcePoint" />
            <mxPoint x="320" y="160" as="targetPoint" />
          </mxGeometry>
        </mxCell>
        <mxCell id="b-667IZJgg0mZAFJ5Uud-43" value="" style="endArrow=none;dashed=1;html=1;dashPattern=1 3;strokeWidth=2;rounded=0;entryX=0;entryY=1;entryDx=0;entryDy=0;" edge="1" parent="1">
          <mxGeometry width="50" height="50" relative="1" as="geometry">
            <mxPoint x="240" as="sourcePoint" />
            <mxPoint x="320" as="targetPoint" />
          </mxGeometry>
        </mxCell>
        <mxCell id="b-667IZJgg0mZAFJ5Uud-44" value="" style="endArrow=none;dashed=1;html=1;dashPattern=1 3;strokeWidth=2;rounded=0;" edge="1" parent="1">
          <mxGeometry width="50" height="50" relative="1" as="geometry">
            <mxPoint x="320" y="-30" as="sourcePoint" />
            <mxPoint x="480" y="-30" as="targetPoint" />
          </mxGeometry>
        </mxCell>
        <mxCell id="b-667IZJgg0mZAFJ5Uud-45" value="" style="endArrow=none;dashed=1;html=1;dashPattern=1 3;strokeWidth=2;rounded=0;" edge="1" parent="1">
          <mxGeometry width="50" height="50" relative="1" as="geometry">
            <mxPoint x="320" y="-50" as="sourcePoint" />
            <mxPoint x="480" y="-50" as="targetPoint" />
          </mxGeometry>
        </mxCell>
        <mxCell id="b-667IZJgg0mZAFJ5Uud-46" value="" style="endArrow=none;dashed=1;html=1;dashPattern=1 3;strokeWidth=2;rounded=0;" edge="1" parent="1">
          <mxGeometry width="50" height="50" relative="1" as="geometry">
            <mxPoint x="320" y="-100" as="sourcePoint" />
            <mxPoint x="480" y="-100" as="targetPoint" />
          </mxGeometry>
        </mxCell>
        <mxCell id="b-667IZJgg0mZAFJ5Uud-47" value="" style="endArrow=none;dashed=1;html=1;dashPattern=1 3;strokeWidth=2;rounded=0;" edge="1" parent="1">
          <mxGeometry width="50" height="50" relative="1" as="geometry">
            <mxPoint x="320" y="-120" as="sourcePoint" />
            <mxPoint x="480" y="-120" as="targetPoint" />
          </mxGeometry>
        </mxCell>
        <mxCell id="b-667IZJgg0mZAFJ5Uud-48" value="" style="endArrow=none;dashed=1;html=1;dashPattern=1 3;strokeWidth=2;rounded=0;" edge="1" parent="1">
          <mxGeometry width="50" height="50" relative="1" as="geometry">
            <mxPoint x="320" y="-140" as="sourcePoint" />
            <mxPoint x="480" y="-140" as="targetPoint" />
          </mxGeometry>
        </mxCell>
        <mxCell id="b-667IZJgg0mZAFJ5Uud-49" value="SRAM 2MB" style="rounded=0;whiteSpace=wrap;html=1;fillColor=#d5e8d4;strokeColor=#82b366;" vertex="1" parent="1">
          <mxGeometry x="600" y="-160" width="120" height="960" as="geometry" />
        </mxCell>
        <mxCell id="b-667IZJgg0mZAFJ5Uud-50" value="" style="shape=curlyBracket;whiteSpace=wrap;html=1;rounded=1;flipH=1;labelPosition=right;verticalLabelPosition=middle;align=left;verticalAlign=middle;" vertex="1" parent="1">
          <mxGeometry x="730" y="-160" width="30" height="960" as="geometry" />
        </mxCell>
        <mxCell id="b-667IZJgg0mZAFJ5Uud-51" value="2MB" style="text;html=1;strokeColor=none;fillColor=none;align=center;verticalAlign=middle;whiteSpace=wrap;rounded=0;fontStyle=1" vertex="1" parent="1">
          <mxGeometry x="760" y="305" width="60" height="30" as="geometry" />
        </mxCell>
        <mxCell id="b-667IZJgg0mZAFJ5Uud-52" value="" style="endArrow=none;dashed=1;html=1;dashPattern=1 3;strokeWidth=2;rounded=0;entryX=1.008;entryY=0.791;entryDx=0;entryDy=0;entryPerimeter=0;" edge="1" parent="1" target="b-667IZJgg0mZAFJ5Uud-49">
          <mxGeometry width="50" height="50" relative="1" as="geometry">
            <mxPoint x="600" y="600" as="sourcePoint" />
            <mxPoint x="680" y="600" as="targetPoint" />
          </mxGeometry>
        </mxCell>
        <mxCell id="b-667IZJgg0mZAFJ5Uud-53" value="" style="endArrow=classic;html=1;rounded=0;entryX=0.015;entryY=0.875;entryDx=0;entryDy=0;entryPerimeter=0;dashed=1;fillColor=#60a917;strokeColor=#2D7600;" edge="1" parent="1" target="b-667IZJgg0mZAFJ5Uud-49">
          <mxGeometry width="50" height="50" relative="1" as="geometry">
            <mxPoint x="480" y="680" as="sourcePoint" />
            <mxPoint x="530" y="630" as="targetPoint" />
          </mxGeometry>
        </mxCell>
        <mxCell id="b-667IZJgg0mZAFJ5Uud-54" value="0x00_0002" style="text;html=1;strokeColor=none;fillColor=none;align=center;verticalAlign=middle;whiteSpace=wrap;rounded=0;" vertex="1" parent="1">
          <mxGeometry x="540" y="750" width="60" as="geometry" />
        </mxCell>
        <mxCell id="b-667IZJgg0mZAFJ5Uud-55" value="0x00_9EFF" style="text;html=1;strokeColor=none;fillColor=none;align=center;verticalAlign=middle;whiteSpace=wrap;rounded=0;" vertex="1" parent="1">
          <mxGeometry x="540" y="610" width="60" as="geometry" />
        </mxCell>
        <mxCell id="b-667IZJgg0mZAFJ5Uud-56" value="" style="shape=trapezoid;perimeter=trapezoidPerimeter;whiteSpace=wrap;html=1;fixedSize=1;rotation=-90;fillColor=#e1d5e7;strokeColor=#9673a6;" vertex="1" parent="1">
          <mxGeometry x="455" y="380" width="90" height="40" as="geometry" />
        </mxCell>
        <mxCell id="b-667IZJgg0mZAFJ5Uud-57" value="" style="shape=trapezoid;perimeter=trapezoidPerimeter;whiteSpace=wrap;html=1;fixedSize=1;rotation=-90;fillColor=#e1d5e7;strokeColor=#9673a6;" vertex="1" parent="1">
          <mxGeometry x="470.63" y="501.88" width="57.5" height="38.75" as="geometry" />
        </mxCell>
        <mxCell id="b-667IZJgg0mZAFJ5Uud-73" value="" style="edgeStyle=orthogonalEdgeStyle;rounded=0;orthogonalLoop=1;jettySize=auto;html=1;" edge="1" parent="1" source="b-667IZJgg0mZAFJ5Uud-59" target="b-667IZJgg0mZAFJ5Uud-49">
          <mxGeometry relative="1" as="geometry" />
        </mxCell>
        <mxCell id="b-667IZJgg0mZAFJ5Uud-59" value="0x01_0000" style="text;html=1;strokeColor=none;fillColor=none;align=center;verticalAlign=middle;whiteSpace=wrap;rounded=0;" vertex="1" parent="1">
          <mxGeometry x="540" y="305" width="60" as="geometry" />
        </mxCell>
        <mxCell id="b-667IZJgg0mZAFJ5Uud-60" value="" style="endArrow=none;dashed=1;html=1;dashPattern=1 3;strokeWidth=2;rounded=0;entryX=1.008;entryY=0.791;entryDx=0;entryDy=0;entryPerimeter=0;" edge="1" parent="1">
          <mxGeometry width="50" height="50" relative="1" as="geometry">
            <mxPoint x="479" y="160" as="sourcePoint" />
            <mxPoint x="600" y="159" as="targetPoint" />
          </mxGeometry>
        </mxCell>
        <mxCell id="b-667IZJgg0mZAFJ5Uud-61" value="0x01_FFFF" style="text;html=1;strokeColor=none;fillColor=none;align=center;verticalAlign=middle;whiteSpace=wrap;rounded=0;" vertex="1" parent="1">
          <mxGeometry x="540" y="170" width="60" as="geometry" />
        </mxCell>
        <mxCell id="b-667IZJgg0mZAFJ5Uud-62" value="" style="endArrow=classic;html=1;rounded=0;entryX=0.015;entryY=0.875;entryDx=0;entryDy=0;entryPerimeter=0;dashed=1;fillColor=#60a917;strokeColor=#2D7600;" edge="1" parent="1">
          <mxGeometry width="50" height="50" relative="1" as="geometry">
            <mxPoint x="480" y="239.67" as="sourcePoint" />
            <mxPoint x="602" y="239.67" as="targetPoint" />
          </mxGeometry>
        </mxCell>
        <mxCell id="b-667IZJgg0mZAFJ5Uud-63" value="" style="endArrow=classic;html=1;rounded=0;entryX=0.015;entryY=0.875;entryDx=0;entryDy=0;entryPerimeter=0;dashed=1;fillColor=#60a917;strokeColor=#2D7600;" edge="1" parent="1">
          <mxGeometry width="50" height="50" relative="1" as="geometry">
            <mxPoint x="480" y="79.66999999999999" as="sourcePoint" />
            <mxPoint x="602" y="79.66999999999999" as="targetPoint" />
          </mxGeometry>
        </mxCell>
        <mxCell id="b-667IZJgg0mZAFJ5Uud-64" value="" style="endArrow=classic;html=1;rounded=0;entryX=0.015;entryY=0.875;entryDx=0;entryDy=0;entryPerimeter=0;fillColor=#60a917;strokeColor=#2D7600;dashed=1;" edge="1" parent="1">
          <mxGeometry width="50" height="50" relative="1" as="geometry">
            <mxPoint x="478" y="-20.000000000000014" as="sourcePoint" />
            <mxPoint x="600" y="-20.000000000000014" as="targetPoint" />
          </mxGeometry>
        </mxCell>
        <mxCell id="b-667IZJgg0mZAFJ5Uud-65" value="" style="endArrow=classic;html=1;rounded=0;entryX=0.015;entryY=0.875;entryDx=0;entryDy=0;entryPerimeter=0;fillColor=#60a917;strokeColor=#2D7600;dashed=1;" edge="1" parent="1">
          <mxGeometry width="50" height="50" relative="1" as="geometry">
            <mxPoint x="480" y="-40" as="sourcePoint" />
            <mxPoint x="602" y="-40" as="targetPoint" />
          </mxGeometry>
        </mxCell>
        <mxCell id="b-667IZJgg0mZAFJ5Uud-66" value="" style="endArrow=classic;html=1;rounded=0;entryX=0.015;entryY=0.875;entryDx=0;entryDy=0;entryPerimeter=0;fillColor=#60a917;strokeColor=#2D7600;dashed=1;" edge="1" parent="1">
          <mxGeometry width="50" height="50" relative="1" as="geometry">
            <mxPoint x="478" y="-80.33" as="sourcePoint" />
            <mxPoint x="600" y="-80.33" as="targetPoint" />
          </mxGeometry>
        </mxCell>
        <mxCell id="b-667IZJgg0mZAFJ5Uud-67" value="" style="endArrow=classic;html=1;rounded=0;entryX=0.015;entryY=0.875;entryDx=0;entryDy=0;entryPerimeter=0;fillColor=#60a917;strokeColor=#2D7600;dashed=1;" edge="1" parent="1">
          <mxGeometry width="50" height="50" relative="1" as="geometry">
            <mxPoint x="480" y="-100" as="sourcePoint" />
            <mxPoint x="602" y="-100" as="targetPoint" />
          </mxGeometry>
        </mxCell>
        <mxCell id="b-667IZJgg0mZAFJ5Uud-68" value="" style="endArrow=classic;html=1;rounded=0;entryX=0.015;entryY=0.875;entryDx=0;entryDy=0;entryPerimeter=0;fillColor=#60a917;strokeColor=#2D7600;dashed=1;" edge="1" parent="1">
          <mxGeometry width="50" height="50" relative="1" as="geometry">
            <mxPoint x="480" y="-60" as="sourcePoint" />
            <mxPoint x="602" y="-60" as="targetPoint" />
          </mxGeometry>
        </mxCell>
        <mxCell id="b-667IZJgg0mZAFJ5Uud-69" value="" style="endArrow=classic;html=1;rounded=0;entryX=0.015;entryY=0.875;entryDx=0;entryDy=0;entryPerimeter=0;fillColor=#60a917;strokeColor=#2D7600;dashed=1;" edge="1" parent="1">
          <mxGeometry width="50" height="50" relative="1" as="geometry">
            <mxPoint x="480" y="-120.00000000000003" as="sourcePoint" />
            <mxPoint x="602" y="-120.00000000000003" as="targetPoint" />
          </mxGeometry>
        </mxCell>
        <mxCell id="b-667IZJgg0mZAFJ5Uud-70" value="" style="endArrow=classic;html=1;rounded=0;entryX=0.015;entryY=0.875;entryDx=0;entryDy=0;entryPerimeter=0;fillColor=#60a917;strokeColor=#2D7600;dashed=1;" edge="1" parent="1">
          <mxGeometry width="50" height="50" relative="1" as="geometry">
            <mxPoint x="480" y="-140.00000000000003" as="sourcePoint" />
            <mxPoint x="602" y="-140.00000000000003" as="targetPoint" />
          </mxGeometry>
        </mxCell>
        <mxCell id="b-667IZJgg0mZAFJ5Uud-71" value="" style="endArrow=none;dashed=1;html=1;dashPattern=1 3;strokeWidth=2;rounded=0;entryX=1.008;entryY=0.791;entryDx=0;entryDy=0;entryPerimeter=0;" edge="1" parent="1">
          <mxGeometry width="50" height="50" relative="1" as="geometry">
            <mxPoint x="479" as="sourcePoint" />
            <mxPoint x="600" y="-1" as="targetPoint" />
          </mxGeometry>
        </mxCell>
        <mxCell id="b-667IZJgg0mZAFJ5Uud-72" value="0x02_FFFF" style="text;html=1;strokeColor=none;fillColor=none;align=center;verticalAlign=middle;whiteSpace=wrap;rounded=0;" vertex="1" parent="1">
          <mxGeometry x="540" y="10" width="60" as="geometry" />
        </mxCell>
        <mxCell id="b-667IZJgg0mZAFJ5Uud-74" value="0x02_0000" style="text;html=1;strokeColor=none;fillColor=none;align=center;verticalAlign=middle;whiteSpace=wrap;rounded=0;" vertex="1" parent="1">
          <mxGeometry x="540" y="150" width="60" as="geometry" />
        </mxCell>
        <mxCell id="b-667IZJgg0mZAFJ5Uud-75" value="0x1F_FFFF" style="text;html=1;strokeColor=none;fillColor=none;align=center;verticalAlign=middle;whiteSpace=wrap;rounded=0;" vertex="1" parent="1">
          <mxGeometry x="540" y="-150" width="60" as="geometry" />
        </mxCell>
        <mxCell id="b-667IZJgg0mZAFJ5Uud-76" value="0x03_0000" style="text;html=1;strokeColor=none;fillColor=none;align=center;verticalAlign=middle;whiteSpace=wrap;rounded=0;" vertex="1" parent="1">
          <mxGeometry x="540" y="-17.5" width="60" height="15" as="geometry" />
        </mxCell>
        <mxCell id="b-667IZJgg0mZAFJ5Uud-77" value="" style="endArrow=classic;html=1;rounded=0;entryX=0;entryY=0.5;entryDx=0;entryDy=0;" edge="1" parent="1" target="b-667IZJgg0mZAFJ5Uud-57">
          <mxGeometry width="50" height="50" relative="1" as="geometry">
            <mxPoint x="480" y="790" as="sourcePoint" />
            <mxPoint x="530" y="740" as="targetPoint" />
            <Array as="points">
              <mxPoint x="500" y="790" />
            </Array>
          </mxGeometry>
        </mxCell>
        <mxCell id="b-667IZJgg0mZAFJ5Uud-78" value="" style="endArrow=classic;html=1;rounded=0;exitX=1;exitY=0.5;exitDx=0;exitDy=0;entryX=0;entryY=0.5;entryDx=0;entryDy=0;" edge="1" parent="1" source="b-667IZJgg0mZAFJ5Uud-4" target="b-667IZJgg0mZAFJ5Uud-56">
          <mxGeometry width="50" height="50" relative="1" as="geometry">
            <mxPoint x="360" y="690" as="sourcePoint" />
            <mxPoint x="410" y="640" as="targetPoint" />
            <Array as="points">
              <mxPoint x="530" y="770" />
              <mxPoint x="530" y="460" />
              <mxPoint x="500" y="460" />
            </Array>
          </mxGeometry>
        </mxCell>
        <mxCell id="b-667IZJgg0mZAFJ5Uud-79" value="ROM-Block multiplex" style="text;html=1;strokeColor=none;fillColor=none;align=center;verticalAlign=middle;whiteSpace=wrap;rounded=0;rotation=-90;fontSize=11;" vertex="1" parent="1">
          <mxGeometry x="470.63" y="380" width="65" height="30" as="geometry" />
        </mxCell>
        <mxCell id="b-667IZJgg0mZAFJ5Uud-81" value="RAM-Block multiplex" style="text;html=1;strokeColor=none;fillColor=none;align=center;verticalAlign=middle;whiteSpace=wrap;rounded=0;rotation=-90;fontSize=9;" vertex="1" parent="1">
          <mxGeometry x="480" y="495" width="55" height="30" as="geometry" />
        </mxCell>
        <mxCell id="b-667IZJgg0mZAFJ5Uud-82" value="0x00_FFFF" style="text;html=1;strokeColor=none;fillColor=none;align=center;verticalAlign=middle;whiteSpace=wrap;rounded=0;" vertex="1" parent="1">
          <mxGeometry x="540" y="330" width="60" as="geometry" />
        </mxCell>
        <mxCell id="b-667IZJgg0mZAFJ5Uud-84" value="" style="endArrow=none;dashed=1;html=1;dashPattern=1 3;strokeWidth=2;rounded=0;entryX=0;entryY=0.5;entryDx=0;entryDy=0;" edge="1" parent="1" target="b-667IZJgg0mZAFJ5Uud-49">
          <mxGeometry width="50" height="50" relative="1" as="geometry">
            <mxPoint x="480" y="319.31" as="sourcePoint" />
            <mxPoint x="560" y="319.31" as="targetPoint" />
          </mxGeometry>
        </mxCell>
        <mxCell id="b-667IZJgg0mZAFJ5Uud-85" value="vectors" style="rounded=1;whiteSpace=wrap;html=1;fillColor=#f8cecc;strokeColor=#b85450;" vertex="1" parent="1">
          <mxGeometry x="400" y="320" width="80" height="20" as="geometry" />
        </mxCell>
        <mxCell id="b-667IZJgg0mZAFJ5Uud-86" value="CPU Address Space (65C02 and 65C816)" style="text;html=1;strokeColor=none;fillColor=none;align=center;verticalAlign=middle;whiteSpace=wrap;rounded=0;fontSize=18;fontStyle=5" vertex="1" parent="1">
          <mxGeometry x="190" y="-220" width="380" height="30" as="geometry" />
        </mxCell>
      </root>
    </mxGraphModel>
  </diagram>
</mxfile>
